<svg xmlns="http://www.w3.org/2000/svg" xml:space="preserve" viewBox="0 0 720 530"><path fill="#00aff0" d="M0 270.4C0 138.7 106.8 31.9 238.4 31.9s238.4 106.8 238.4 238.4-106.7 238.5-238.4 238.5S0 402 0 270.4zm166.9 0c0 39.5 32 71.5 71.5 71.5s71.5-32 71.5-71.5-32-71.5-71.5-71.5-71.5 31.9-71.5 71.5z" opacity=".06"/><path fill="#0091ea" d="M238.4 508.8 310 281.4C383.5 47.8 421.2 31.9 595.6 31.9h119.7c-20 88.2-89.1 155.6-208.9 178.8 60.6 17.4 132.1 0 132.1 0C617.8 301.3 552 358.1 457.1 365c-37.6 87.3-123.5 143.8-218.5 143.8h-.2z" opacity=".12"/></svg>